<?plantuml 1.2026.1?><svg xmlns="http://www.w3.org/2000/svg" xmlns:xlink="http://www.w3.org/1999/xlink" contentStyleType="text/css" data-diagram-type="DESCRIPTION" height="1346px" preserveAspectRatio="none" style="width:1472px;height:1346px;background:#FEFEFE;" version="1.1" viewBox="0 0 1472 1346" width="1472px" zoomAndPan="magnify"><title>AI4PDE Domain Extension &#8212; &#31995;&#32479;&#26550;&#26500;&#19982;&#25191;&#34892;&#27969;</title><defs/><g><rect fill="#FEFEFE" height="1346" style="stroke:none;stroke-width:1;" width="1472" x="0" y="0"/><g class="title" data-source-line="8"><text fill="#000000" font-family="sans-serif" font-size="14" font-weight="bold" lengthAdjust="spacing" textLength="343.7314" x="557.6142" y="22.9951">AI4PDE Domain Extension &#8212; &#31995;&#32479;&#26550;&#26500;&#19982;&#25191;&#34892;&#27969;</text></g><!--cluster ????--><g class="cluster" data-qualified-name="...." data-source-line="10" id="ent0002"><path d="M130.5,43.2969 L189.25,43.2969 A3.75,3.75 0 0 1 191.75,45.7969 L198.75,65.5938 L419.5,65.5938 A2.5,2.5 0 0 1 422,68.0938 L422,128.0969 A2.5,2.5 0 0 1 419.5,130.5969 L130.5,130.5969 A2.5,2.5 0 0 1 128,128.0969 L128,45.7969 A2.5,2.5 0 0 1 130.5,43.2969" fill="none" style="stroke:#555555;stroke-width:1.5;"/><line style="stroke:#555555;stroke-width:1.5;" x1="128" x2="198.75" y1="65.5938" y2="65.5938"/><text fill="#000000" font-family="sans-serif" font-size="14" font-weight="bold" lengthAdjust="spacing" textLength="57.75" x="132" y="58.292">&#22806;&#37096;&#36755;&#20837;</text></g><!--cluster metaharness_ext.ai4pde--><g class="cluster" data-qualified-name="metaharness_ext.ai4pde" data-source-line="15" id="ent0005"><path d="M8.5,179.5969 L203.2305,179.5969 A3.75,3.75 0 0 1 205.7305,182.0969 L212.7305,201.8938 L870.5,201.8938 A2.5,2.5 0 0 1 873,204.3938 L873,1336.6969 A2.5,2.5 0 0 1 870.5,1339.1969 L8.5,1339.1969 A2.5,2.5 0 0 1 6,1336.6969 L6,182.0969 A2.5,2.5 0 0 1 8.5,179.5969" fill="none" style="stroke:#555555;stroke-width:1.5;"/><line style="stroke:#555555;stroke-width:1.5;" x1="6" x2="212.7305" y1="201.8938" y2="201.8938"/><text fill="#000000" font-family="sans-serif" font-size="14" font-weight="bold" lengthAdjust="spacing" textLength="193.7305" x="10" y="194.592">metaharness_ext.ai4pde</text></g><!--cluster ?????--><g class="cluster" data-qualified-name="metaharness_ext.ai4pde......" data-source-line="16" id="ent0006"><path d="M32.5,222.5969 L105.6875,222.5969 A3.75,3.75 0 0 1 108.1875,225.0969 L115.1875,244.8938 L337.5,244.8938 A2.5,2.5 0 0 1 340,247.3938 L340,748.3169 A2.5,2.5 0 0 1 337.5,750.8169 L32.5,750.8169 A2.5,2.5 0 0 1 30,748.3169 L30,225.0969 A2.5,2.5 0 0 1 32.5,222.5969" fill="none" style="stroke:#555555;stroke-width:1.5;"/><line style="stroke:#555555;stroke-width:1.5;" x1="30" x2="115.1875" y1="244.8938" y2="244.8938"/><text fill="#000000" font-family="sans-serif" font-size="14" font-weight="bold" lengthAdjust="spacing" textLength="72.1875" x="34" y="237.592">&#20837;&#21475;&#19982;&#32534;&#35793;</text></g><!--cluster ?????--><g class="cluster" data-qualified-name="metaharness_ext.ai4pde......" data-source-line="23" id="ent0011"><path d="M187.5,799.8169 L260.6875,799.8169 A3.75,3.75 0 0 1 263.1875,802.3169 L270.1875,822.1138 L511.5,822.1138 A2.5,2.5 0 0 1 514,824.6138 L514,900.9169 A2.5,2.5 0 0 1 511.5,903.4169 L187.5,903.4169 A2.5,2.5 0 0 1 185,900.9169 L185,802.3169 A2.5,2.5 0 0 1 187.5,799.8169" fill="none" style="stroke:#555555;stroke-width:1.5;"/><line style="stroke:#555555;stroke-width:1.5;" x1="185" x2="270.1875" y1="822.1138" y2="822.1138"/><text fill="#000000" font-family="sans-serif" font-size="14" font-weight="bold" lengthAdjust="spacing" textLength="72.1875" x="189" y="814.812">&#25191;&#34892;&#19982;&#27714;&#35299;</text></g><!--cluster ?????--><g class="cluster" data-qualified-name="metaharness_ext.ai4pde......" data-source-line="28" id="ent0014"><path d="M346.5,952.4169 L419.6875,952.4169 A3.75,3.75 0 0 1 422.1875,954.9169 L429.1875,974.7138 L573.5,974.7138 A2.5,2.5 0 0 1 576,977.2138 L576,1312.6969 A2.5,2.5 0 0 1 573.5,1315.1969 L346.5,1315.1969 A2.5,2.5 0 0 1 344,1312.6969 L344,954.9169 A2.5,2.5 0 0 1 346.5,952.4169" fill="none" style="stroke:#555555;stroke-width:1.5;"/><line style="stroke:#555555;stroke-width:1.5;" x1="344" x2="429.1875" y1="974.7138" y2="974.7138"/><text fill="#000000" font-family="sans-serif" font-size="14" font-weight="bold" lengthAdjust="spacing" textLength="72.1875" x="348" y="967.412">&#39564;&#35777;&#19982;&#35777;&#25454;</text></g><!--cluster ??????--><g class="cluster" data-qualified-name="metaharness_ext.ai4pde......." data-source-line="34" id="ent0018"><path d="M366.5,373.1869 L454.125,373.1869 A3.75,3.75 0 0 1 456.625,375.6869 L463.625,395.4838 L846.5,395.4838 A2.5,2.5 0 0 1 849,397.9838 L849,474.2869 A2.5,2.5 0 0 1 846.5,476.7869 L366.5,476.7869 A2.5,2.5 0 0 1 364,474.2869 L364,375.6869 A2.5,2.5 0 0 1 366.5,373.1869" fill="none" style="stroke:#555555;stroke-width:1.5;"/><line style="stroke:#555555;stroke-width:1.5;" x1="364" x2="463.625" y1="395.4838" y2="395.4838"/><text fill="#000000" font-family="sans-serif" font-size="14" font-weight="bold" lengthAdjust="spacing" textLength="86.625" x="368" y="388.182">&#27835;&#29702;&#19982;&#21487;&#35266;&#27979;</text></g><!--cluster ?Harness ??--><g class="cluster" data-qualified-name=".Harness .." data-source-line="41" id="ent0022"><path d="M899.5,525.7869 L1012.8828,525.7869 A3.75,3.75 0 0 1 1015.3828,528.2869 L1022.3828,548.0838 L1284.5,548.0838 A2.5,2.5 0 0 1 1287,550.5838 L1287,892.7669 A2.5,2.5 0 0 1 1284.5,895.2669 L899.5,895.2669 A2.5,2.5 0 0 1 897,892.7669 L897,528.2869 A2.5,2.5 0 0 1 899.5,525.7869" fill="#DDDDDD" style="stroke:#555555;stroke-width:1.5;"/><line style="stroke:#555555;stroke-width:1.5;" x1="897" x2="1022.3828" y1="548.0838" y2="548.0838"/><text fill="#000000" font-family="sans-serif" font-size="14" font-weight="bold" lengthAdjust="spacing" textLength="112.3828" x="901" y="540.782">&#20803;Harness &#26680;&#24515;</text></g><!--entity CaseXML--><g class="entity" data-qualified-name=".....CaseXML" data-source-line="11" id="ent0003"><rect fill="#F1F1F1" height="36.2969" rx="2.5" ry="2.5" style="stroke:#181818;stroke-width:0.5;" width="143.3135" x="144.34" y="78.2969"/><text fill="#000000" font-family="sans-serif" font-size="14" lengthAdjust="spacing" textLength="123.3135" x="154.34" y="101.292">AI4PDE Case XML</text></g><!--entity CLI--><g class="entity" data-qualified-name=".....CLI" data-source-line="12" id="ent0004"><rect fill="#F1F1F1" height="36.2969" rx="2.5" ry="2.5" style="stroke:#181818;stroke-width:0.5;" width="83.3213" x="322.34" y="78.2969"/><text fill="#000000" font-family="sans-serif" font-size="14" lengthAdjust="spacing" textLength="63.3213" x="332.34" y="101.292">&#29992;&#25143; / CLI</text></g><!--entity Gateway--><g class="entity" data-qualified-name="metaharness_ext.ai4pde.......Gateway" data-source-line="17" id="ent0007"><rect fill="#F1F1F1" height="52.5938" rx="2.5" ry="2.5" style="stroke:#181818;stroke-width:0.5;" width="268.4795" x="55.76" y="408.1869"/><text fill="#000000" font-family="sans-serif" font-size="14" lengthAdjust="spacing" textLength="89.9131" x="65.76" y="431.182">PDEGateway</text><text fill="#000000" font-family="sans-serif" font-size="14" lengthAdjust="spacing" textLength="248.4795" x="65.76" y="447.4789">(issue_task / issue_task_from_case)</text></g><!--entity Parser--><g class="entity" data-qualified-name="metaharness_ext.ai4pde.......Parser" data-source-line="18" id="ent0008"><rect fill="#F1F1F1" height="52.5938" rx="2.5" ry="2.5" style="stroke:#181818;stroke-width:0.5;" width="277.6055" x="46.2" y="257.5969"/><text fill="#000000" font-family="sans-serif" font-size="14" lengthAdjust="spacing" textLength="78.7021" x="56.2" y="280.592">CaseParser</text><text fill="#000000" font-family="sans-serif" font-size="14" lengthAdjust="spacing" textLength="257.6055" x="56.2" y="296.8889">(XML &#8594; PDETaskRequest + PDEPlan)</text></g><!--entity Formulator--><g class="entity" data-qualified-name="metaharness_ext.ai4pde.......Formulator" data-source-line="19" id="ent0009"><rect fill="#F1F1F1" height="52.5938" rx="2.5" ry="2.5" style="stroke:#181818;stroke-width:0.5;" width="154.9551" x="167.52" y="552.6369"/><text fill="#000000" font-family="sans-serif" font-size="14" lengthAdjust="spacing" textLength="134.9551" x="177.52" y="575.632">ProblemFormulator</text><text fill="#000000" font-family="sans-serif" font-size="14" lengthAdjust="spacing" textLength="94.541" x="177.52" y="591.9289">(&#35268;&#33539;&#21270; / &#32454;&#21270;)</text></g><!--entity Router--><g class="entity" data-qualified-name="metaharness_ext.ai4pde.......Router" data-source-line="20" id="ent0010"><rect fill="#F1F1F1" height="52.5938" rx="2.5" ry="2.5" style="stroke:#181818;stroke-width:0.5;" width="119.5313" x="204.23" y="682.2269"/><text fill="#000000" font-family="sans-serif" font-size="14" lengthAdjust="spacing" textLength="99.5313" x="214.23" y="705.222">MethodRouter</text><text fill="#000000" font-family="sans-serif" font-size="14" lengthAdjust="spacing" textLength="94.9238" x="214.23" y="721.5189">(&#26500;&#24314;&#25191;&#34892;&#35745;&#21010;)</text></g><!--entity Executor--><g class="entity" data-qualified-name="metaharness_ext.ai4pde.......Executor" data-source-line="24" id="ent0012"><rect fill="#F1F1F1" height="52.5938" rx="2.5" ry="2.5" style="stroke:#181818;stroke-width:0.5;" width="126.1211" x="200.94" y="834.8169"/><text fill="#000000" font-family="sans-serif" font-size="14" lengthAdjust="spacing" textLength="106.1211" x="210.94" y="857.812">SolverExecutor</text><text fill="#000000" font-family="sans-serif" font-size="14" lengthAdjust="spacing" textLength="99.4424" x="210.94" y="874.1089">(PDE &#27714;&#35299;&#25191;&#34892;)</text></g><!--entity RefSolver--><g class="entity" data-qualified-name="metaharness_ext.ai4pde.......RefSolver" data-source-line="25" id="ent0013"><rect fill="#F1F1F1" height="52.5938" rx="2.5" ry="2.5" style="stroke:#181818;stroke-width:0.5;" width="135.4316" x="362.28" y="834.8169"/><text fill="#000000" font-family="sans-serif" font-size="14" lengthAdjust="spacing" textLength="115.4316" x="372.28" y="857.812">ReferenceSolver</text><text fill="#000000" font-family="sans-serif" font-size="14" lengthAdjust="spacing" textLength="80.9238" x="372.28" y="874.1089">(&#21442;&#32771;&#35299;&#35745;&#31639;)</text></g><!--entity Validator--><g class="entity" data-qualified-name="metaharness_ext.ai4pde.......Validator" data-source-line="29" id="ent0015"><rect fill="#F1F1F1" height="52.5938" rx="2.5" ry="2.5" style="stroke:#181818;stroke-width:0.5;" width="134.9873" x="362.51" y="987.4169"/><text fill="#000000" font-family="sans-serif" font-size="14" lengthAdjust="spacing" textLength="114.9873" x="372.51" y="1010.412">PhysicsValidator</text><text fill="#000000" font-family="sans-serif" font-size="14" lengthAdjust="spacing" textLength="94.9238" x="372.51" y="1026.7089">(&#29289;&#29702;&#32422;&#26463;&#39564;&#35777;)</text></g><!--entity Evidence--><g class="entity" data-qualified-name="metaharness_ext.ai4pde.......Evidence" data-source-line="30" id="ent0016"><rect fill="#F1F1F1" height="52.5938" rx="2.5" ry="2.5" style="stroke:#181818;stroke-width:0.5;" width="145.0703" x="360.46" y="1117.0069"/><text fill="#000000" font-family="sans-serif" font-size="14" lengthAdjust="spacing" textLength="125.0703" x="370.46" y="1140.002">EvidenceManager</text><text fill="#000000" font-family="sans-serif" font-size="14" lengthAdjust="spacing" textLength="94.9238" x="370.46" y="1156.2989">(&#31185;&#23398;&#35777;&#25454;&#32452;&#35013;)</text></g><!--entity Memory--><g class="entity" data-qualified-name="metaharness_ext.ai4pde.......Memory" data-source-line="31" id="ent0017"><rect fill="#F1F1F1" height="52.5938" rx="2.5" ry="2.5" style="stroke:#181818;stroke-width:0.5;" width="157.8262" x="381.09" y="1246.6069"/><text fill="#000000" font-family="sans-serif" font-size="14" lengthAdjust="spacing" textLength="137.8262" x="391.09" y="1269.602">ExperimentMemory</text><text fill="#000000" font-family="sans-serif" font-size="14" lengthAdjust="spacing" textLength="94.9238" x="391.09" y="1285.8989">(&#23454;&#39564;&#35760;&#24518;&#23384;&#20648;)</text></g><!--entity Risk--><g class="entity" data-qualified-name="metaharness_ext.ai4pde........Risk" data-source-line="35" id="ent0019"><rect fill="#F1F1F1" height="52.5938" rx="2.5" ry="2.5" style="stroke:#181818;stroke-width:0.5;" width="89.7881" x="567.11" y="408.1869"/><text fill="#000000" font-family="sans-serif" font-size="14" lengthAdjust="spacing" textLength="69.7881" x="577.11" y="431.182">RiskPolicy</text><text fill="#000000" font-family="sans-serif" font-size="14" lengthAdjust="spacing" textLength="66.9238" x="577.11" y="447.4789">(&#39118;&#38505;&#20998;&#32423;)</text></g><!--entity Observability--><g class="entity" data-qualified-name="metaharness_ext.ai4pde........Observability" data-source-line="36" id="ent0020"><rect fill="#F1F1F1" height="52.5938" rx="2.5" ry="2.5" style="stroke:#181818;stroke-width:0.5;" width="141.0508" x="691.47" y="408.1869"/><text fill="#000000" font-family="sans-serif" font-size="14" lengthAdjust="spacing" textLength="121.0508" x="701.47" y="431.182">ObservabilityHub</text><text fill="#000000" font-family="sans-serif" font-size="14" lengthAdjust="spacing" textLength="66.9238" x="701.47" y="447.4789">(&#23457;&#35745;&#20107;&#20214;)</text></g><!--entity Knowledge--><g class="entity" data-qualified-name="metaharness_ext.ai4pde........Knowledge" data-source-line="37" id="ent0021"><rect fill="#F1F1F1" height="52.5938" rx="2.5" ry="2.5" style="stroke:#181818;stroke-width:0.5;" width="152.7471" x="379.63" y="408.1869"/><text fill="#000000" font-family="sans-serif" font-size="14" lengthAdjust="spacing" textLength="132.7471" x="389.63" y="431.182">KnowledgeAdapter</text><text fill="#000000" font-family="sans-serif" font-size="14" lengthAdjust="spacing" textLength="94.9238" x="389.63" y="447.4789">(&#39046;&#22495;&#30693;&#35782;&#27880;&#20837;)</text></g><!--entity Registry--><g class="entity" data-qualified-name=".Harness ...Registry" data-source-line="42" id="ent0023"><rect fill="#F1F1F1" height="36.2969" rx="2.5" ry="2.5" style="stroke:#181818;stroke-width:0.5;" width="159.2207" x="913.39" y="560.7869"/><text fill="#000000" font-family="sans-serif" font-size="14" lengthAdjust="spacing" textLength="139.2207" x="923.39" y="583.782">ComponentRegistry</text></g><!--entity Engine--><g class="entity" data-qualified-name=".Harness ...Engine" data-source-line="43" id="ent0024"><rect fill="#F1F1F1" height="52.5938" rx="2.5" ry="2.5" style="stroke:#181818;stroke-width:0.5;" width="181.752" x="1080.12" y="682.2269"/><text fill="#000000" font-family="sans-serif" font-size="14" lengthAdjust="spacing" textLength="127.1963" x="1090.12" y="705.222">ConnectionEngine</text><text fill="#000000" font-family="sans-serif" font-size="14" lengthAdjust="spacing" textLength="161.752" x="1090.12" y="721.5189">(stage / commit graph)</text></g><!--entity Store--><g class="entity" data-qualified-name=".Harness ...Store" data-source-line="44" id="ent0025"><rect fill="#F1F1F1" height="36.2969" rx="2.5" ry="2.5" style="stroke:#181818;stroke-width:0.5;" width="152.8223" x="1094.59" y="842.9669"/><text fill="#000000" font-family="sans-serif" font-size="14" lengthAdjust="spacing" textLength="132.8223" x="1104.59" y="865.962">GraphVersionStore</text></g><!--entity GraphXML--><g class="entity" data-qualified-name=".Harness ...GraphXML" data-source-line="45" id="ent0026"><rect fill="#F1F1F1" height="36.2969" rx="2.5" ry="2.5" style="stroke:#181818;stroke-width:0.5;" width="163.124" x="1107.44" y="560.7869"/><text fill="#000000" font-family="sans-serif" font-size="14" lengthAdjust="spacing" textLength="143.124" x="1117.44" y="583.782">GraphTemplate XML</text></g><!--link CLI to Gateway--><g class="link" data-entity-1="ent0004" data-entity-2="ent0007" data-link-type="dependency" data-source-line="48" id="lnk27"><path d="M370.81,114.7669 C387.1,159.3569 423.34,279.9969 372,357.1869 C365.25,367.3369 315.4302,387.666 267.4902,405.586" fill="none" id="CLI-to-Gateway" style="stroke:#181818;stroke-width:1;"/><polygon fill="#181818" points="261.87,407.6869,271.7008,408.2824,266.5535,405.9362,268.8997,400.7888,261.87,407.6869" style="stroke:#181818;stroke-width:1;"/><text fill="#000000" font-family="sans-serif" font-size="13" lengthAdjust="spacing" textLength="81.1992" x="399.49" y="288.4638">task request</text></g><!--link CaseXML to Parser--><g class="link" data-entity-1="ent0003" data-entity-2="ent0008" data-link-type="dependency" data-source-line="49" id="lnk28"><path d="M213.08,114.8969 C207.6,147.7169 196.7091,212.859 190.2991,251.209" fill="none" id="CaseXML-to-Parser" style="stroke:#181818;stroke-width:1;"/><polygon fill="#181818" points="189.31,257.1269,194.739,248.9094,190.1343,252.1953,186.8485,247.5906,189.31,257.1269" style="stroke:#181818;stroke-width:1;"/><text fill="#000000" font-family="sans-serif" font-size="13" lengthAdjust="spacing" textLength="36.334" x="208.69" y="159.6638">parse</text></g><!--link Parser to Gateway--><g class="link" data-entity-1="ent0008" data-entity-2="ent0007" data-link-type="dependency" data-source-line="50" id="lnk29"><path d="M184.44,310.4969 C184.26,319.8369 184.09,330.4869 184,340.1869 C183.93,347.7469 183.7,349.6369 184,357.1869 C184.66,374.0469 185.6023,386.981 186.9323,401.761" fill="none" id="Parser-to-Gateway" style="stroke:#181818;stroke-width:1;"/><polygon fill="#181818" points="187.47,407.7369,190.6473,398.4146,187.0219,402.757,182.6795,399.1316,187.47,407.7369" style="stroke:#181818;stroke-width:1;"/><text fill="#000000" font-family="sans-serif" font-size="13" lengthAdjust="spacing" textLength="182.5396" x="185" y="353.2538">PDETaskRequest + PDEPlan</text></g><!--link Gateway to Formulator--><g class="link" data-entity-1="ent0007" data-entity-2="ent0009" data-link-type="dependency" data-source-line="51" id="lnk30"><path d="M199.96,461.2769 C209.93,487.0969 223.0093,520.9794 232.9493,546.7294" fill="none" id="Gateway-to-Formulator" style="stroke:#181818;stroke-width:1;"/><polygon fill="#181818" points="235.11,552.3269,235.6005,542.4902,233.3094,547.6623,228.1373,545.3712,235.11,552.3269" style="stroke:#181818;stroke-width:1;"/><text fill="#000000" font-family="sans-serif" font-size="13" lengthAdjust="spacing" textLength="103.2002" x="218.5" y="505.8538">formulated task</text></g><!--link Formulator to Router--><g class="link" data-entity-1="ent0009" data-entity-2="ent0010" data-link-type="dependency" data-source-line="52" id="lnk31"><path d="M248.8,605.4469 C252.11,627.6969 256.0167,653.8822 259.3267,676.1222" fill="none" id="Formulator-to-Router" style="stroke:#181818;stroke-width:1;"/><polygon fill="#181818" points="260.21,682.0569,262.8415,672.5661,259.474,677.1113,254.9287,673.7438,260.21,682.0569" style="stroke:#181818;stroke-width:1;"/><text fill="#000000" font-family="sans-serif" font-size="13" lengthAdjust="spacing" textLength="77.5176" x="256.64" y="648.2938">refined task</text></g><!--link Router to Executor--><g class="link" data-entity-1="ent0010" data-entity-2="ent0012" data-link-type="dependency" data-source-line="53" id="lnk32"><path d="M264,735.0669 C264,762.7669 264,800.7069 264,828.4469" fill="none" id="Router-to-Executor" style="stroke:#181818;stroke-width:1;"/><polygon fill="#181818" points="264,834.4469,268,825.4469,264,829.4469,260,825.4469,264,834.4469" style="stroke:#181818;stroke-width:1;"/><text fill="#000000" font-family="sans-serif" font-size="13" lengthAdjust="spacing" textLength="53.7202" x="265" y="779.8838">PDEPlan</text></g><!--link Executor to Validator--><g class="link" data-entity-1="ent0012" data-entity-2="ent0015" data-link-type="dependency" data-source-line="54" id="lnk33"><path d="M280.74,887.7769 C291.27,902.8669 305.73,921.7969 321,936.4169 C340.94,955.5069 360.9844,970.1346 382.0544,983.7846" fill="none" id="Executor-to-Validator" style="stroke:#181818;stroke-width:1;"/><polygon fill="#181818" points="387.09,987.0469,381.7114,978.7964,382.8936,984.3283,377.3617,985.5105,387.09,987.0469" style="stroke:#181818;stroke-width:1;"/><text fill="#000000" font-family="sans-serif" font-size="13" lengthAdjust="spacing" textLength="99.3091" x="322" y="932.4838">PDERunArtifact</text></g><!--link Router to RefSolver--><g class="link" data-entity-1="ent0010" data-entity-2="ent0013" data-link-type="dependency" data-source-line="55" id="lnk34"><path d="M292.16,735.0669 C322.68,762.7669 366.676,802.6756 397.256,830.4156" fill="none" id="Router-to-RefSolver" style="stroke:#181818;stroke-width:1;"/><polygon fill="#181818" points="401.7,834.4469,397.7215,825.4373,397.9967,831.0875,392.3465,831.3626,401.7,834.4469" style="stroke:#181818;stroke-width:1;"/><text fill="#000000" font-family="sans-serif" font-size="13" lengthAdjust="spacing" textLength="53.7202" x="343.02" y="779.8838">PDEPlan</text></g><!--link RefSolver to Validator--><g class="link" data-entity-1="ent0013" data-entity-2="ent0015" data-link-type="dependency" data-source-line="56" id="lnk35"><path d="M430,887.6669 C430,915.3569 430,953.2969 430,981.0369" fill="none" id="RefSolver-to-Validator" style="stroke:#181818;stroke-width:1;"/><polygon fill="#181818" points="430,987.0369,434,978.0369,430,982.0369,426,978.0369,430,987.0369" style="stroke:#181818;stroke-width:1;"/><text fill="#000000" font-family="sans-serif" font-size="13" lengthAdjust="spacing" textLength="103.8413" x="431" y="932.4838">reference result</text></g><!--link Validator to Evidence--><g class="link" data-entity-1="ent0015" data-entity-2="ent0016" data-link-type="dependency" data-source-line="57" id="lnk36"><path d="M430.6,1040.2269 C431.12,1062.4769 431.7398,1088.5985 432.2598,1110.8385" fill="none" id="Validator-to-Evidence" style="stroke:#181818;stroke-width:1;"/><polygon fill="#181818" points="432.4,1116.8369,436.1885,1107.7458,432.2831,1111.8382,428.1907,1107.9328,432.4,1116.8369" style="stroke:#181818;stroke-width:1;"/><text fill="#000000" font-family="sans-serif" font-size="13" lengthAdjust="spacing" textLength="110.4619" x="432.68" y="1083.0738">ValidationBundle</text></g><!--link Evidence to Memory--><g class="link" data-entity-1="ent0016" data-entity-2="ent0017" data-link-type="dependency" data-source-line="58" id="lnk37"><path d="M438.4,1169.8169 C443.11,1192.0769 448.6569,1218.3171 453.3669,1240.5571" fill="none" id="Evidence-to-Memory" style="stroke:#181818;stroke-width:1;"/><polygon fill="#181818" points="454.61,1246.4269,456.6585,1236.7934,453.5741,1241.5354,448.8321,1238.4509,454.61,1246.4269" style="stroke:#181818;stroke-width:1;"/><text fill="#000000" font-family="sans-serif" font-size="13" lengthAdjust="spacing" textLength="163.7061" x="449.12" y="1212.6738">ScientificEvidenceBundle</text></g><!--link Knowledge to Formulator--><g class="link" data-entity-1="ent0021" data-entity-2="ent0009" data-link-type="dependency" data-source-line="60" id="lnk38"><path d="M417.79,461.2769 C379.55,487.0969 326.0428,523.2195 287.9028,548.9695" fill="none" id="Knowledge-to-Formulator" style="stroke:#181818;stroke-width:1;"/><polygon fill="#181818" points="282.93,552.3269,292.6274,550.6061,287.074,549.5291,288.1509,543.9757,282.93,552.3269" style="stroke:#181818;stroke-width:1;"/><text fill="#000000" font-family="sans-serif" font-size="13" lengthAdjust="spacing" textLength="84.7793" x="370.4" y="505.8538">domain hints</text></g><!--link Risk to Router--><g class="link" data-entity-1="ent0019" data-entity-2="ent0010" data-link-type="dependency" data-source-line="61" id="lnk39"><path d="M581.47,461.2069 C532.13,502.5169 431.46,585.7469 343,652.2269 C329.75,662.1869 319.8564,669.2819 306.6664,678.4519" fill="none" id="Risk-to-Router" style="stroke:#181818;stroke-width:1;"/><polygon fill="#181818" points="301.74,681.8769,311.4129,680.0237,305.8454,679.0227,306.8463,673.4551,301.74,681.8769" style="stroke:#181818;stroke-width:1;"/><text fill="#000000" font-family="sans-serif" font-size="13" lengthAdjust="spacing" textLength="111.4775" x="513.95" y="583.4938">risk classification</text></g><!--link Observability to Memory--><g class="link" data-entity-1="ent0020" data-entity-2="ent0017" data-link-type="dependency" data-source-line="62" id="lnk40"><path d="M705.71,460.9969 C693.23,469.3269 681.51,479.8569 674,492.7869 C654.96,525.5669 669,540.0269 669,577.9269 C669,577.9269 669,577.9269 669,1144.3069 C669,1207.5469 604.2215,1238.7624 545.0915,1255.1724" fill="none" id="Observability-to-Memory" style="stroke:#181818;stroke-width:1;stroke-dasharray:7,7;"/><polygon fill="#181818" points="539.31,1256.7769,549.0519,1258.2244,544.1279,1255.4398,546.9126,1250.5158,539.31,1256.7769" style="stroke:#181818;stroke-width:1;"/><text fill="#000000" font-family="sans-serif" font-size="13" lengthAdjust="spacing" textLength="62.9307" x="670" y="865.6838">audit trail</text></g><!--link Gateway to Registry--><g class="link" data-entity-1="ent0007" data-entity-2="ent0023" data-link-type="dependency" data-source-line="64" id="lnk41"><path d="M268.49,461.2469 C298.12,470.0369 332.33,479.0769 364,484.7869 C407.44,492.6169 419.15,487.7169 463,492.7869 C623.39,511.3169 803.529,542.6814 907.039,561.7214" fill="none" id="Gateway-to-Registry" style="stroke:#181818;stroke-width:1;stroke-dasharray:7,7;"/><polygon fill="#181818" points="912.94,562.8069,904.8121,557.2447,908.0225,561.9023,903.3649,565.1127,912.94,562.8069" style="stroke:#181818;stroke-width:1;"/><text fill="#000000" font-family="sans-serif" font-size="13" lengthAdjust="spacing" textLength="118.2505" x="580.63" y="505.8538">register manifests</text></g><!--link Gateway to Engine--><g class="link" data-entity-1="ent0007" data-entity-2="ent0024" data-link-type="dependency" data-source-line="65" id="lnk42"><path d="M264.89,461.1869 C295.27,470.4269 330.94,479.7969 364,484.7869 C414.79,492.4369 1252,481.1469 1288,517.7869 C1329.89,560.4169 1323.23,601.8969 1291,652.2269 C1283.08,664.5869 1276.7988,671.18 1264.0588,678.69" fill="none" id="Gateway-to-Engine" style="stroke:#181818;stroke-width:1;stroke-dasharray:7,7;"/><polygon fill="#181818" points="1258.89,681.7369,1268.6745,680.6124,1263.1973,679.1978,1264.6119,673.7207,1258.89,681.7369" style="stroke:#181818;stroke-width:1;"/><text fill="#000000" font-family="sans-serif" font-size="13" lengthAdjust="spacing" textLength="146.6499" x="1318.31" y="583.4938">commit runtime graph</text></g><!--link Engine to Store--><g class="link" data-entity-1="ent0024" data-entity-2="ent0025" data-link-type="dependency" data-source-line="66" id="lnk43"><path d="M1171,735.0669 C1171,765.6169 1171,809.9369 1171,836.4669" fill="none" id="Engine-to-Store" style="stroke:#181818;stroke-width:1;stroke-dasharray:7,7;"/><polygon fill="#181818" points="1171,842.4669,1175,833.4669,1171,837.4669,1167,833.4669,1171,842.4669" style="stroke:#181818;stroke-width:1;"/><text fill="#000000" font-family="sans-serif" font-size="13" lengthAdjust="spacing" textLength="96.5732" x="1172" y="779.8838">graph versions</text></g><!--link GraphXML to Engine--><g class="link" data-entity-1="ent0026" data-entity-2="ent0024" data-link-type="dependency" data-source-line="67" id="lnk44"><path d="M1186.53,597.4069 C1183.45,619.2469 1178.9979,650.8557 1175.4579,675.9557" fill="none" id="GraphXML-to-Engine" style="stroke:#181818;stroke-width:1;stroke-dasharray:7,7;"/><polygon fill="#181818" points="1174.62,681.8969,1179.8377,673.5437,1175.3183,676.9459,1171.9161,672.4265,1174.62,681.8969" style="stroke:#181818;stroke-width:1;"/><text fill="#000000" font-family="sans-serif" font-size="13" lengthAdjust="spacing" textLength="100.8706" x="1182.08" y="648.2938">graph template</text></g><?plantuml-src TLLTRnj557tVNp6aBo3KL4ZXXGUar77IY0Gi9wgG04MJtR4pokwicPbDOn1I6oTMgeQ6bYh00p4Xf4wHwW1LInKZ-b-gh7VzBxZpiTvrMzQIDJFtt7FFpDnxvosFr2WZg5ekBKz_FBTGHgwFXN0SiKvP0tCSe5NihjTv636l5FeXHvTco-fNGBXXq0WPON99Dds2E74bPdMV520L8C5rSZNa7k6MvttzlGwQ3O69VaNGUrEE8wa4okdvgSfC6Ss40QOCbJSbOOA63Bsy-G0bJ_f9lpCuV3OutBvuVdTmkviUxGsUtdASXk534_5l1yFMQVhlz_7EoGJwsa7mVMOvIrWGzEdYmXS82ps1iG4a3qu7kt-ZAwYqC6-i2_FEDmNQW4YyXZaZGgoGJJc9wLJ38rc0FFhEIRn_3DAIVmxIitkPNSS01NDOaXku-JbxcmeHaHM9nJe4pIShDHu6Aov8UqVBi0uvYL9TmLmG3YGW7xritqV0l0pELV9bH8H4xwg5Ye-PuJ3mWWuUhleac0rv4FbOXeefxMwdUwruxm3K9Fqs38nl3ihz5ubS2xrg64aj0guYxf-RgqXxH_7kVUDg0DeD3dBib0nONU2VMsdtUEoKba9_W_3o9d4Z8qrTdC4PDyEU0NB7AgaHJfXB30DunljRwSqME8AifFU3bKLg1l16PSFVzzApMw0C_WVVziRlRwqfg2kkOvzwzjYIsu-Ixzh9-SF1pntZQeACCBbtUODwIjqYPX19EtVlnOyVca19Vpizth5RiyY2xsQ3S1f0rIsI8EGgV-BUeGhO-oD-qOuV_nXldHfd0tZpgV_L1x6mjtZ_BErk3PxU6TjUbOhrIkXJLz4FZ-yEVteKxyBUklRSm9o3Frc5bDh0gzIdidajMjMAZk2SByxlNFIV6PSnKExx4Gjl-CIhasaFDqmE3NzjnvrEqZb9pzg39wTGHOPX1BKRAbPalDEwPWeI3Nvv7hzeJQ1BC_hBghwKzQeggLCXUTCcW9ba6CQWXq63ARCwT4SG8wJYlw9QNK0bgdFSMBCteo76SKujNoTSzQObk6cY4NfK02oJe07batSTlQhQ3cm5UWowVFd3hCZH1qZt0sxAsB4DIaDC3GEYeGQEdOux_ryNS3A8WkS53HurEo6UZkmKZ0fhAXXmN3yS5cHN5I0hGXDSnnejAVke30oW6h5fBcaDkxB8Cgh80as-zYeFpyeSHYBofPCRjIHRF82q1hYVg_2WmHCriYcWAHI0BRaKKeJMg9lPBTmPPT_h9-UPrscDCYaSLHgl79XQqQ-hujKQdB5gG9EJ1GauyY3H9CVKTqQtfH1Phkfzgo6m1vZH6bom64EQr0ISpLeUmPu2OhBNiLO5r1aAE6r06oQ1WSlcvJYP0KcRnCv_?></g></svg>