<?plantuml 1.2026.1?><svg xmlns="http://www.w3.org/2000/svg" xmlns:xlink="http://www.w3.org/1999/xlink" contentStyleType="text/css" data-diagram-type="ACTIVITY" height="1344px" preserveAspectRatio="none" style="width:2774px;height:1344px;background:#FEFEFE;" version="1.1" viewBox="0 0 2774 1344" width="2774px" zoomAndPan="magnify"><title>Nektar Domain Extension &#8212; &#21333;&#27425;&#25191;&#34892;&#38142;&#19982;&#25910;&#25947;&#30740;&#31350;&#27969;</title><defs/><g><rect fill="#FEFEFE" height="1344" style="stroke:none;stroke-width:1;" width="2774" x="0" y="0"/><g class="title" data-source-line="5"><text fill="#000000" font-family="sans-serif" font-size="14" font-weight="bold" lengthAdjust="spacing" textLength="383.3799" x="1194.1506" y="32.9951">Nektar Domain Extension &#8212; &#21333;&#27425;&#25191;&#34892;&#38142;&#19982;&#25910;&#25947;&#30740;&#31350;&#27969;</text></g><rect fill="none" height="20.9531" style="stroke:none;stroke-width:1;" width="2741.6812" x="15" y="50.042"/><rect fill="#ADD8E6" height="1282.1528" style="stroke:#ADD8E6;stroke-width:1;" width="391.1533" x="15" y="50.042"/><ellipse cx="104.4326" cy="85.9951" fill="#222222" rx="10" ry="10" style="stroke:#222222;stroke-width:1;"/><path d="M207.8652,105.9951 L207.8652,129.6943 L187.8652,133.6943 L207.8652,137.6943 L207.8652,161.3936 A0,0 0 0 0 207.8652,161.3936 L401.1533,161.3936 A0,0 0 0 0 401.1533,161.3936 L401.1533,115.9951 L391.1533,105.9951 L207.8652,105.9951 A0,0 0 0 0 207.8652,105.9951" fill="#FEFFDD" style="stroke:#181818;stroke-width:0.5;"/><path d="M391.1533,105.9951 L391.1533,115.9951 L401.1533,115.9951 L391.1533,105.9951" fill="#FEFFDD" style="stroke:#181818;stroke-width:0.5;"/><text fill="#000000" font-family="sans-serif" font-size="13" lengthAdjust="spacing" textLength="172.2881" x="213.8652" y="123.062">solver_family: ADR / IncNS</text><text fill="#000000" font-family="sans-serif" font-size="13" lengthAdjust="spacing" textLength="138.9565" x="213.8652" y="138.1948">dimension, variables,</text><text fill="#000000" font-family="sans-serif" font-size="13" lengthAdjust="spacing" textLength="132.9517" x="213.8652" y="153.3276">boundary conditions</text><rect fill="#F1F1F1" height="33.9688" rx="12.5" ry="12.5" style="stroke:#181818;stroke-width:0.5;" width="166.8652" x="21" y="116.71"/><text fill="#000000" font-family="sans-serif" font-size="12" lengthAdjust="spacing" textLength="146.8652" x="31" y="137.8486">&#25509;&#25910; NektarProblemSpec</text><line style="stroke:#000000;stroke-width:1.5;" x1="15" x2="15" y1="50.042" y2="1332.1948"/><rect fill="#90EE90" height="1282.1528" style="stroke:#90EE90;stroke-width:1;" width="385.478" x="406.1533" y="50.042"/><path d="M573.3545,171.3936 L573.3545,195.0928 L553.3545,199.0928 L573.3545,203.0928 L573.3545,226.792 A0,0 0 0 0 573.3545,226.792 L786.6313,226.792 A0,0 0 0 0 786.6313,226.792 L786.6313,181.3936 L776.6313,171.3936 L573.3545,171.3936 A0,0 0 0 0 573.3545,171.3936" fill="#FEFFDD" style="stroke:#181818;stroke-width:0.5;"/><path d="M776.6313,171.3936 L776.6313,181.3936 L786.6313,181.3936 L776.6313,171.3936" fill="#FEFFDD" style="stroke:#181818;stroke-width:0.5;"/><text fill="#000000" font-family="sans-serif" font-size="13" lengthAdjust="spacing" textLength="135.9414" x="579.3545" y="188.4604">&#8594; NektarSessionPlan</text><text fill="#000000" font-family="sans-serif" font-size="13" lengthAdjust="spacing" textLength="192.2769" x="579.3545" y="203.5933">solver_binary, equation_type,</text><text fill="#000000" font-family="sans-serif" font-size="13" lengthAdjust="spacing" textLength="185.8086" x="579.3545" y="218.7261">expansion, mesh, conditions</text><rect fill="#F1F1F1" height="33.9688" rx="12.5" ry="12.5" style="stroke:#181818;stroke-width:0.5;" width="141.2012" x="412.1533" y="182.1084"/><text fill="#000000" font-family="sans-serif" font-size="12" lengthAdjust="spacing" textLength="121.2012" x="422.1533" y="203.2471">build_session_plan()</text><line style="stroke:#000000;stroke-width:1.5;" x1="406.1533" x2="406.1533" y1="50.042" y2="1332.1948"/><rect fill="#D3D3D3" height="1282.1528" style="stroke:#D3D3D3;stroke-width:1;" width="377.4727" x="791.6313" y="50.042"/><path d="M965.395,243.6436 L965.395,259.7764 L945.395,263.7764 L965.395,267.7764 L965.395,283.9092 A0,0 0 0 0 965.395,283.9092 L1164.104,283.9092 A0,0 0 0 0 1164.104,283.9092 L1164.104,253.6436 L1154.104,243.6436 L965.395,243.6436 A0,0 0 0 0 965.395,243.6436" fill="#FEFFDD" style="stroke:#181818;stroke-width:0.5;"/><path d="M1154.104,243.6436 L1154.104,253.6436 L1164.104,253.6436 L1154.104,243.6436" fill="#FEFFDD" style="stroke:#181818;stroke-width:0.5;"/><text fill="#000000" font-family="sans-serif" font-size="13" lengthAdjust="spacing" textLength="121.3799" x="971.395" y="260.7104">&#8594; session.xml &#25991;&#20214;</text><text fill="#000000" font-family="sans-serif" font-size="13" lengthAdjust="spacing" textLength="177.709" x="971.395" y="275.8433">&#21487;&#30452;&#25509;&#36755;&#20837; Nektar++ &#27714;&#35299;&#22120;</text><rect fill="#F1F1F1" height="33.9688" rx="12.5" ry="12.5" style="stroke:#181818;stroke-width:0.5;" width="147.7637" x="797.6313" y="246.792"/><text fill="#000000" font-family="sans-serif" font-size="12" lengthAdjust="spacing" textLength="127.7637" x="807.6313" y="267.9307">render_session_xml()</text><line style="stroke:#000000;stroke-width:1.5;" x1="791.6313" x2="791.6313" y1="50.042" y2="1332.1948"/><rect fill="#F5DEB3" height="1282.1528" style="stroke:#F5DEB3;stroke-width:1;" width="325.5566" x="1169.104" y="50.042"/><path d="M1304.5356,293.9092 L1304.5356,325.1748 L1284.5356,329.1748 L1304.5356,333.1748 L1304.5356,364.4404 A0,0 0 0 0 1304.5356,364.4404 L1489.6606,364.4404 A0,0 0 0 0 1489.6606,364.4404 L1489.6606,303.9092 L1479.6606,293.9092 L1304.5356,293.9092 A0,0 0 0 0 1304.5356,293.9092" fill="#FEFFDD" style="stroke:#181818;stroke-width:0.5;"/><path d="M1479.6606,293.9092 L1479.6606,303.9092 L1489.6606,303.9092 L1479.6606,293.9092" fill="#FEFFDD" style="stroke:#181818;stroke-width:0.5;"/><text fill="#000000" font-family="sans-serif" font-size="13" lengthAdjust="spacing" textLength="138.709" x="1310.5356" y="310.9761">&#35843;&#29992; Nektar++ &#20108;&#36827;&#21046;</text><text fill="#000000" font-family="sans-serif" font-size="13" lengthAdjust="spacing" textLength="138.9312" x="1310.5356" y="326.1089">&#25429;&#33719; stdout/stderr/log</text><text fill="#000000" font-family="sans-serif" font-size="13" lengthAdjust="spacing" textLength="164.125" x="1310.5356" y="341.2417">&#25552;&#21462; error norms, metrics</text><text fill="#000000" font-family="sans-serif" font-size="13" lengthAdjust="spacing" textLength="131.9297" x="1310.5356" y="356.3745">&#8594; NektarRunArtifact</text><rect fill="#F1F1F1" height="33.9688" rx="12.5" ry="12.5" style="stroke:#181818;stroke-width:0.5;" width="109.4316" x="1175.104" y="312.1904"/><text fill="#000000" font-family="sans-serif" font-size="12" lengthAdjust="spacing" textLength="89.4316" x="1185.104" y="333.3291">execute_plan()</text><line style="stroke:#000000;stroke-width:1.5;" x1="1169.104" x2="1169.104" y1="50.042" y2="1332.1948"/><rect fill="#F08080" height="1282.1528" style="stroke:#F08080;stroke-width:1;" width="372.6934" x="1494.6606" y="50.042"/><path d="M1648.4614,374.4404 L1648.4614,405.7061 L1628.4614,409.7061 L1648.4614,413.7061 L1648.4614,444.9717 A0,0 0 0 0 1648.4614,444.9717 L1862.354,444.9717 A0,0 0 0 0 1862.354,444.9717 L1862.354,384.4404 L1852.354,374.4404 L1648.4614,374.4404 A0,0 0 0 0 1648.4614,374.4404" fill="#FEFFDD" style="stroke:#181818;stroke-width:0.5;"/><path d="M1852.354,374.4404 L1852.354,384.4404 L1862.354,384.4404 L1852.354,374.4404" fill="#FEFFDD" style="stroke:#181818;stroke-width:0.5;"/><text fill="#000000" font-family="sans-serif" font-size="13" lengthAdjust="spacing" textLength="165.4517" x="1654.4614" y="391.5073">FieldConvert -e (&#35823;&#24046;&#35780;&#20272;)</text><text fill="#000000" font-family="sans-serif" font-size="13" lengthAdjust="spacing" textLength="121.2656" x="1654.4614" y="406.6401">&#27966;&#29983;&#25991;&#20214; (.vtu/.dat)</text><text fill="#000000" font-family="sans-serif" font-size="13" lengthAdjust="spacing" textLength="108.9004" x="1654.4614" y="421.7729">&#25910;&#25947; metrics &#25552;&#21462;</text><text fill="#000000" font-family="sans-serif" font-size="13" lengthAdjust="spacing" textLength="192.8926" x="1654.4614" y="436.9058">&#8594; enriched NektarRunArtifact</text><rect fill="#F1F1F1" height="33.9688" rx="12.5" ry="12.5" style="stroke:#181818;stroke-width:0.5;" width="127.8008" x="1500.6606" y="392.7217"/><text fill="#000000" font-family="sans-serif" font-size="12" lengthAdjust="spacing" textLength="107.8008" x="1510.6606" y="413.8604">run_postprocess()</text><line style="stroke:#000000;stroke-width:1.5;" x1="1494.6606" x2="1494.6606" y1="50.042" y2="1332.1948"/><rect fill="#87CEFA" height="1282.1528" style="stroke:#87CEFA;stroke-width:1;" width="381.583" x="1867.354" y="50.042"/><path d="M2055.3716,454.9717 L2055.3716,486.2373 L2035.3716,490.2373 L2055.3716,494.2373 L2055.3716,525.5029 A0,0 0 0 0 2055.3716,525.5029 L2243.937,525.5029 A0,0 0 0 0 2243.937,525.5029 L2243.937,464.9717 L2233.937,454.9717 L2055.3716,454.9717 A0,0 0 0 0 2055.3716,454.9717" fill="#FEFFDD" style="stroke:#181818;stroke-width:0.5;"/><path d="M2233.937,454.9717 L2233.937,464.9717 L2243.937,464.9717 L2233.937,454.9717" fill="#FEFFDD" style="stroke:#181818;stroke-width:0.5;"/><text fill="#000000" font-family="sans-serif" font-size="13" lengthAdjust="spacing" textLength="121.5068" x="2061.3716" y="472.0386">solver &#24178;&#20928;&#36864;&#20986;&#26816;&#26597;</text><text fill="#000000" font-family="sans-serif" font-size="13" lengthAdjust="spacing" textLength="101.8862" x="2061.3716" y="487.1714">field files &#23384;&#22312;&#24615;</text><text fill="#000000" font-family="sans-serif" font-size="13" lengthAdjust="spacing" textLength="147.4941" x="2061.3716" y="502.3042">error vs reference &#27604;&#36739;</text><text fill="#000000" font-family="sans-serif" font-size="13" lengthAdjust="spacing" textLength="167.5654" x="2061.3716" y="517.437">&#8594; NektarValidationReport</text><rect fill="#F1F1F1" height="33.9688" rx="12.5" ry="12.5" style="stroke:#181818;stroke-width:0.5;" width="103.6895" x="1931.6821" y="473.2529"/><text fill="#000000" font-family="sans-serif" font-size="12" lengthAdjust="spacing" textLength="83.6895" x="1941.6821" y="494.3916">validate_run()</text><rect fill="#F1F1F1" height="33.9688" rx="12.5" ry="12.5" style="stroke:#181818;stroke-width:0.5;" width="92" x="1937.5269" y="545.5029"/><text fill="#000000" font-family="sans-serif" font-size="12" lengthAdjust="spacing" textLength="72" x="1947.5269" y="566.6416">&#21333;&#27425;&#25191;&#34892;&#23436;&#25104;</text><polygon fill="#F1F1F1" points="1923.354,599.4717,2043.6997,599.4717,2055.6997,611.4717,2043.6997,623.4717,1923.354,623.4717,1911.354,611.4717,1923.354,599.4717" style="stroke:#181818;stroke-width:0.5;"/><text fill="#000000" font-family="sans-serif" font-size="11" lengthAdjust="spacing" textLength="11" x="1987.5269" y="633.6821">&#26159;</text><text fill="#000000" font-family="sans-serif" font-size="12" lengthAdjust="spacing" textLength="120.3457" x="1923.354" y="615.626">ConvergenceStudy?</text><text fill="#000000" font-family="sans-serif" font-size="11" lengthAdjust="spacing" textLength="11" x="1900.354" y="608.8774">&#21542;</text><polygon fill="#F1F1F1" points="1983.5269,1266.1948,1995.5269,1278.1948,1983.5269,1290.1948,1971.5269,1278.1948,1983.5269,1266.1948" style="stroke:#181818;stroke-width:0.5;"/><line style="stroke:#000000;stroke-width:1.5;" x1="1867.354" x2="1867.354" y1="50.042" y2="1332.1948"/><rect fill="#DA70D6" height="1282.1528" style="stroke:#DA70D6;stroke-width:1;" width="505.8833" x="2248.937" y="50.042"/><path d="M2445.4146,651.71 L2445.4146,667.8428 L2425.4146,671.8428 L2445.4146,675.8428 L2445.4146,691.9756 A0,0 0 0 0 2445.4146,691.9756 L2645.9199,691.9756 A0,0 0 0 0 2645.9199,691.9756 L2645.9199,661.71 L2635.9199,651.71 L2445.4146,651.71 A0,0 0 0 0 2445.4146,651.71" fill="#FEFFDD" style="stroke:#181818;stroke-width:0.5;"/><path d="M2635.9199,651.71 L2635.9199,661.71 L2645.9199,661.71 L2635.9199,651.71" fill="#FEFFDD" style="stroke:#181818;stroke-width:0.5;"/><text fill="#000000" font-family="sans-serif" font-size="13" lengthAdjust="spacing" textLength="163.9346" x="2451.4146" y="668.7769">deep-copy base_problem</text><text fill="#000000" font-family="sans-serif" font-size="13" lengthAdjust="spacing" textLength="179.5054" x="2451.4146" y="683.9097">mutate NumModes per trial</text><rect fill="#F1F1F1" height="47.9375" rx="12.5" ry="12.5" style="stroke:#181818;stroke-width:0.5;" width="138.8457" x="2286.5688" y="647.874"/><text fill="#000000" font-family="sans-serif" font-size="12" lengthAdjust="spacing" textLength="94.6992" x="2296.5688" y="669.0127">&#36941;&#21382; axis.values</text><text fill="#000000" font-family="sans-serif" font-size="12" lengthAdjust="spacing" textLength="118.8457" x="2296.5688" y="682.9814">(NumModes sweep)</text><path d="M2439.3384,749.8115 L2439.3384,773.5107 L2419.3384,777.5107 L2439.3384,781.5107 L2439.3384,805.21 A0,0 0 0 0 2439.3384,805.21 L2652.374,805.21 A0,0 0 0 0 2652.374,805.21 L2652.374,759.8115 L2642.374,749.8115 L2439.3384,749.8115 A0,0 0 0 0 2439.3384,749.8115" fill="#FEFFDD" style="stroke:#181818;stroke-width:0.5;"/><path d="M2642.374,749.8115 L2642.374,759.8115 L2652.374,759.8115 L2642.374,749.8115" fill="#FEFFDD" style="stroke:#181818;stroke-width:0.5;"/><text fill="#000000" font-family="sans-serif" font-size="13" lengthAdjust="spacing" textLength="137.5918" x="2445.3384" y="766.8784">compile &#8594; execute &#8594;</text><text fill="#000000" font-family="sans-serif" font-size="13" lengthAdjust="spacing" textLength="149.6714" x="2445.3384" y="782.0112">postprocess &#8594; validate</text><text fill="#000000" font-family="sans-serif" font-size="13" lengthAdjust="spacing" textLength="192.0356" x="2445.3384" y="797.144">&#22833;&#36133;&#26102;&#38477;&#32423;&#20026; failed trial report</text><rect fill="#F1F1F1" height="33.9688" rx="12.5" ry="12.5" style="stroke:#181818;stroke-width:0.5;" width="126.6934" x="2292.645" y="760.5264"/><text fill="#000000" font-family="sans-serif" font-size="12" lengthAdjust="spacing" textLength="106.6934" x="2302.645" y="781.665">_run_single_trial()</text><path d="M2454.6899,815.21 L2454.6899,861.6084 L2434.6899,865.6084 L2454.6899,869.6084 L2454.6899,916.0068 A0,0 0 0 0 2454.6899,916.0068 L2665.5483,916.0068 A0,0 0 0 0 2665.5483,916.0068 L2665.5483,825.21 L2655.5483,815.21 L2454.6899,815.21 A0,0 0 0 0 2454.6899,815.21" fill="#FEFFDD" style="stroke:#181818;stroke-width:0.5;"/><path d="M2655.5483,815.21 L2655.5483,825.21 L2665.5483,825.21 L2655.5483,815.21" fill="#FEFFDD" style="stroke:#181818;stroke-width:0.5;"/><text fill="#000000" font-family="sans-serif" font-size="13" lengthAdjust="spacing" textLength="118.6694" x="2460.6899" y="832.2769">parse_solver_log()</text><text fill="#000000" font-family="sans-serif" font-size="13" lengthAdjust="spacing" textLength="139.3691" x="2460.6899" y="847.4097">parse_filter_outputs()</text><text fill="#000000" font-family="sans-serif" font-size="13" lengthAdjust="spacing" textLength="189.8584" x="2460.6899" y="862.5425">summarize_reference_error()</text><text fill="#000000" font-family="sans-serif" font-size="13" lengthAdjust="spacing" textLength="132.8882" x="2460.6899" y="877.6753">&#8594; SolverLogAnalysis</text><text fill="#000000" font-family="sans-serif" font-size="13" lengthAdjust="spacing" textLength="146.8848" x="2460.6899" y="892.8081">&#8594; FilterOutputAnalysis</text><text fill="#000000" font-family="sans-serif" font-size="13" lengthAdjust="spacing" textLength="110.0493" x="2460.6899" y="907.9409">&#8594; ErrorSummary</text><rect fill="#F1F1F1" height="33.9688" rx="12.5" ry="12.5" style="stroke:#181818;stroke-width:0.5;" width="157.3965" x="2277.2935" y="848.624"/><text fill="#000000" font-family="sans-serif" font-size="12" lengthAdjust="spacing" textLength="137.3965" x="2287.2935" y="869.7627">&#26500;&#24314; analyzer evidence</text><polygon fill="#F1F1F1" points="2355.9917,715.8115,2367.9917,727.8115,2355.9917,739.8115,2343.9917,727.8115,2355.9917,715.8115" style="stroke:#181818;stroke-width:0.5;"/><polygon fill="#F1F1F1" points="2297.9136,954.4053,2414.0698,954.4053,2426.0698,968.374,2414.0698,982.3428,2297.9136,982.3428,2285.9136,968.374,2297.9136,954.4053" style="stroke:#181818;stroke-width:0.5;"/><text fill="#000000" font-family="sans-serif" font-size="12" lengthAdjust="spacing" textLength="101.0684" x="2297.9136" y="965.5439">&#36824;&#26377; axis values?</text><text fill="#000000" font-family="sans-serif" font-size="12" lengthAdjust="spacing" textLength="116.1563" x="2297.9136" y="979.5127">stop_on_first_pass?</text><path d="M2458.8794,1014.6011 L2458.8794,1045.8667 L2438.8794,1049.8667 L2458.8794,1053.8667 L2458.8794,1085.1323 A0,0 0 0 0 2458.8794,1085.1323 L2718.6528,1085.1323 A0,0 0 0 0 2718.6528,1085.1323 L2718.6528,1024.6011 L2708.6528,1014.6011 L2458.8794,1014.6011 A0,0 0 0 0 2458.8794,1014.6011" fill="#FEFFDD" style="stroke:#181818;stroke-width:0.5;"/><path d="M2708.6528,1014.6011 L2708.6528,1024.6011 L2718.6528,1024.6011 L2708.6528,1014.6011" fill="#FEFFDD" style="stroke:#181818;stroke-width:0.5;"/><text fill="#000000" font-family="sans-serif" font-size="13" lengthAdjust="spacing" textLength="101.1309" x="2464.8794" y="1031.668">error_sequence</text><text fill="#000000" font-family="sans-serif" font-size="13" lengthAdjust="spacing" textLength="73.0488" x="2464.8794" y="1046.8008">drop_ratios</text><text fill="#000000" font-family="sans-serif" font-size="13" lengthAdjust="spacing" textLength="101.6577" x="2464.8794" y="1061.9336">observed_order</text><text fill="#000000" font-family="sans-serif" font-size="13" lengthAdjust="spacing" textLength="238.7734" x="2464.8794" y="1077.0664">(log(e_i/e_{i+1}) / log(N_{i+1}/N_i))</text><rect fill="#F1F1F1" height="33.9688" rx="12.5" ry="12.5" style="stroke:#181818;stroke-width:0.5;" width="165.7754" x="2273.104" y="1032.8823"/><text fill="#000000" font-family="sans-serif" font-size="12" lengthAdjust="spacing" textLength="145.7754" x="2283.104" y="1054.021">&#35745;&#31639; study-level &#27966;&#29983;&#25351;&#26631;</text><path d="M2452.2085,1095.1323 L2452.2085,1126.3979 L2432.2085,1130.3979 L2452.2085,1134.3979 L2452.2085,1165.6636 A0,0 0 0 0 2452.2085,1165.6636 L2749.8203,1165.6636 A0,0 0 0 0 2749.8203,1165.6636 L2749.8203,1105.1323 L2739.8203,1095.1323 L2452.2085,1095.1323 A0,0 0 0 0 2452.2085,1095.1323" fill="#FEFFDD" style="stroke:#181818;stroke-width:0.5;"/><path d="M2739.8203,1095.1323 L2739.8203,1105.1323 L2749.8203,1105.1323 L2739.8203,1095.1323" fill="#FEFFDD" style="stroke:#181818;stroke-width:0.5;"/><text fill="#000000" font-family="sans-serif" font-size="13" font-weight="bold" lengthAdjust="spacing" textLength="63.4893" x="2458.2085" y="1112.1992">absolute</text><text fill="#000000" font-family="sans-serif" font-size="13" lengthAdjust="spacing" textLength="177.144" x="2521.6978" y="1112.1992">: metric &#8804; target_tolerance</text><text fill="#000000" font-family="sans-serif" font-size="13" font-weight="bold" lengthAdjust="spacing" textLength="96.8716" x="2458.2085" y="1127.332">relative_drop</text><text fill="#000000" font-family="sans-serif" font-size="13" lengthAdjust="spacing" textLength="179.7402" x="2555.0801" y="1127.332">: ratio &#8804; relative_drop_ratio</text><text fill="#000000" font-family="sans-serif" font-size="13" font-weight="bold" lengthAdjust="spacing" textLength="55.5928" x="2458.2085" y="1142.4648">plateau</text><text fill="#000000" font-family="sans-serif" font-size="13" lengthAdjust="spacing" textLength="192.2832" x="2513.8013" y="1142.4648">: |&#916;ratio| &lt; plateau_tolerance</text><text fill="#000000" font-family="sans-serif" font-size="13" lengthAdjust="spacing" textLength="214.7095" x="2458.2085" y="1157.5977">&#26410;&#21629;&#20013; &#8594; fallback &#26368;&#20339; metric trial</text><rect fill="#F1F1F1" height="33.9688" rx="12.5" ry="12.5" style="stroke:#181818;stroke-width:0.5;" width="152.4336" x="2279.7749" y="1113.4136"/><text fill="#000000" font-family="sans-serif" font-size="12" lengthAdjust="spacing" textLength="132.4336" x="2289.7749" y="1134.5522">&#35780;&#20272; convergence rule</text><path d="M2477.0464,1175.6636 L2477.0464,1206.9292 L2457.0464,1210.9292 L2477.0464,1214.9292 L2477.0464,1246.1948 A0,0 0 0 0 2477.0464,1246.1948 L2680.9795,1246.1948 A0,0 0 0 0 2680.9795,1246.1948 L2680.9795,1185.6636 L2670.9795,1175.6636 L2477.0464,1175.6636 A0,0 0 0 0 2477.0464,1175.6636" fill="#FEFFDD" style="stroke:#181818;stroke-width:0.5;"/><path d="M2670.9795,1175.6636 L2670.9795,1185.6636 L2680.9795,1185.6636 L2670.9795,1175.6636" fill="#FEFFDD" style="stroke:#181818;stroke-width:0.5;"/><text fill="#000000" font-family="sans-serif" font-size="13" lengthAdjust="spacing" textLength="181.3208" x="2483.0464" y="1192.7305">trials, recommended_value,</text><text fill="#000000" font-family="sans-serif" font-size="13" lengthAdjust="spacing" textLength="182.9331" x="2483.0464" y="1207.8633">converged, observed_order,</text><text fill="#000000" font-family="sans-serif" font-size="13" lengthAdjust="spacing" textLength="149.4175" x="2483.0464" y="1222.9961">recommended_reason,</text><text fill="#000000" font-family="sans-serif" font-size="13" lengthAdjust="spacing" textLength="182.4443" x="2483.0464" y="1238.1289">error_sequence, drop_ratios</text><rect fill="#F1F1F1" height="33.9688" rx="12.5" ry="12.5" style="stroke:#181818;stroke-width:0.5;" width="202.1094" x="2254.937" y="1193.9448"/><text fill="#000000" font-family="sans-serif" font-size="12" lengthAdjust="spacing" textLength="182.1094" x="2264.937" y="1215.0835">&#29983;&#25104; ConvergenceStudyReport</text><ellipse cx="2355.9917" cy="1321.1948" fill="none" rx="11" ry="11" style="stroke:#222222;stroke-width:1;"/><ellipse cx="2355.9917" cy="1321.1948" fill="#222222" rx="6" ry="6" style="stroke:#222222;stroke-width:1;"/><line style="stroke:#000000;stroke-width:1.5;" x1="2248.937" x2="2248.937" y1="50.042" y2="1332.1948"/><line style="stroke:#000000;stroke-width:1.5;" x1="2754.8203" x2="2754.8203" y1="50.042" y2="1332.1948"/><line style="stroke:#333333;stroke-width:1;" x1="104.4326" x2="104.4326" y1="95.9951" y2="116.71"/><polygon fill="#333333" points="100.4326,106.71,104.4326,116.71,108.4326,106.71,104.4326,110.71" style="stroke:#333333;stroke-width:1;"/><line style="stroke:#333333;stroke-width:1;" x1="1983.5269" x2="1983.5269" y1="507.2217" y2="545.5029"/><polygon fill="#333333" points="1979.5269,535.5029,1983.5269,545.5029,1987.5269,535.5029,1983.5269,539.5029" style="stroke:#333333;stroke-width:1;"/><line style="stroke:#333333;stroke-width:1;" x1="1911.354" x2="1886.354" y1="611.4717" y2="611.4717"/><polygon fill="#333333" points="1882.354,926.0068,1886.354,936.0068,1890.354,926.0068,1886.354,930.0068" style="stroke:#333333;stroke-width:1;"/><line style="stroke:#333333;stroke-width:1;" x1="1886.354" x2="1886.354" y1="611.4717" y2="1278.1948"/><line style="stroke:#333333;stroke-width:1;" x1="1886.354" x2="1971.5269" y1="1278.1948" y2="1278.1948"/><polygon fill="#333333" points="1961.5269,1274.1948,1971.5269,1278.1948,1961.5269,1282.1948,1965.5269,1278.1948" style="stroke:#333333;stroke-width:1;"/><line style="stroke:#333333;stroke-width:1;" x1="1983.5269" x2="1983.5269" y1="579.4717" y2="599.4717"/><polygon fill="#333333" points="1979.5269,589.4717,1983.5269,599.4717,1987.5269,589.4717,1983.5269,593.4717" style="stroke:#333333;stroke-width:1;"/><line style="stroke:#333333;stroke-width:1;" x1="2355.9917" x2="2355.9917" y1="794.4951" y2="848.624"/><polygon fill="#333333" points="2351.9917,838.624,2355.9917,848.624,2359.9917,838.624,2355.9917,842.624" style="stroke:#333333;stroke-width:1;"/><line style="stroke:#333333;stroke-width:1;" x1="2355.9917" x2="2355.9917" y1="739.8115" y2="760.5264"/><polygon fill="#333333" points="2351.9917,750.5264,2355.9917,760.5264,2359.9917,750.5264,2355.9917,754.5264" style="stroke:#333333;stroke-width:1;"/><line style="stroke:#333333;stroke-width:1;" x1="2426.0698" x2="2677.5483" y1="968.374" y2="968.374"/><polygon fill="#333333" points="2673.5483,831.3936,2677.5483,821.3936,2681.5483,831.3936,2677.5483,827.3936" style="stroke:#333333;stroke-width:1;"/><line style="stroke:#333333;stroke-width:1;" x1="2677.5483" x2="2677.5483" y1="727.8115" y2="968.374"/><line style="stroke:#333333;stroke-width:1;" x1="2677.5483" x2="2367.9917" y1="727.8115" y2="727.8115"/><polygon fill="#333333" points="2377.9917,723.8115,2367.9917,727.8115,2377.9917,731.8115,2373.9917,727.8115" style="stroke:#333333;stroke-width:1;"/><line style="stroke:#333333;stroke-width:1;" x1="2355.9917" x2="2355.9917" y1="882.5928" y2="954.4053"/><polygon fill="#333333" points="2351.9917,944.4053,2355.9917,954.4053,2359.9917,944.4053,2355.9917,948.4053" style="stroke:#333333;stroke-width:1;"/><line style="stroke:#333333;stroke-width:1;" x1="2355.9917" x2="2355.9917" y1="695.8115" y2="715.8115"/><polygon fill="#333333" points="2351.9917,705.8115,2355.9917,715.8115,2359.9917,705.8115,2355.9917,709.8115" style="stroke:#333333;stroke-width:1;"/><line style="stroke:#333333;stroke-width:1;" x1="2355.9917" x2="2355.9917" y1="982.3428" y2="1032.8823"/><polygon fill="#333333" points="2351.9917,1022.8823,2355.9917,1032.8823,2359.9917,1022.8823,2355.9917,1026.8823" style="stroke:#333333;stroke-width:1;"/><text fill="#000000" font-family="sans-serif" font-size="11" lengthAdjust="spacing" textLength="11" x="2359.9917" y="1003.6475">&#21542;</text><line style="stroke:#333333;stroke-width:1;" x1="2355.9917" x2="2355.9917" y1="1066.8511" y2="1113.4136"/><polygon fill="#333333" points="2351.9917,1103.4136,2355.9917,1113.4136,2359.9917,1103.4136,2355.9917,1107.4136" style="stroke:#333333;stroke-width:1;"/><line style="stroke:#333333;stroke-width:1;" x1="2355.9917" x2="2355.9917" y1="1147.3823" y2="1193.9448"/><polygon fill="#333333" points="2351.9917,1183.9448,2355.9917,1193.9448,2359.9917,1183.9448,2355.9917,1187.9448" style="stroke:#333333;stroke-width:1;"/><line style="stroke:#333333;stroke-width:1;" x1="104.4326" x2="104.4326" y1="150.6787" y2="166.3936"/><line style="stroke:#333333;stroke-width:1;" x1="104.4326" x2="482.7539" y1="166.3936" y2="166.3936"/><line style="stroke:#333333;stroke-width:1;" x1="482.7539" x2="482.7539" y1="166.3936" y2="182.1084"/><polygon fill="#333333" points="478.7539,172.1084,482.7539,182.1084,486.7539,172.1084,482.7539,176.1084" style="stroke:#333333;stroke-width:1;"/><line style="stroke:#333333;stroke-width:1;" x1="482.7539" x2="482.7539" y1="216.0771" y2="231.792"/><line style="stroke:#333333;stroke-width:1;" x1="482.7539" x2="871.5132" y1="231.792" y2="231.792"/><line style="stroke:#333333;stroke-width:1;" x1="871.5132" x2="871.5132" y1="231.792" y2="246.792"/><polygon fill="#333333" points="867.5132,236.792,871.5132,246.792,875.5132,236.792,871.5132,240.792" style="stroke:#333333;stroke-width:1;"/><line style="stroke:#333333;stroke-width:1;" x1="871.5132" x2="871.5132" y1="280.7607" y2="288.9092"/><line style="stroke:#333333;stroke-width:1;" x1="871.5132" x2="1229.8198" y1="288.9092" y2="288.9092"/><line style="stroke:#333333;stroke-width:1;" x1="1229.8198" x2="1229.8198" y1="288.9092" y2="312.1904"/><polygon fill="#333333" points="1225.8198,302.1904,1229.8198,312.1904,1233.8198,302.1904,1229.8198,306.1904" style="stroke:#333333;stroke-width:1;"/><line style="stroke:#333333;stroke-width:1;" x1="1229.8198" x2="1229.8198" y1="346.1592" y2="369.4404"/><line style="stroke:#333333;stroke-width:1;" x1="1229.8198" x2="1564.561" y1="369.4404" y2="369.4404"/><line style="stroke:#333333;stroke-width:1;" x1="1564.561" x2="1564.561" y1="369.4404" y2="392.7217"/><polygon fill="#333333" points="1560.561,382.7217,1564.561,392.7217,1568.561,382.7217,1564.561,386.7217" style="stroke:#333333;stroke-width:1;"/><line style="stroke:#333333;stroke-width:1;" x1="1564.561" x2="1564.561" y1="426.6904" y2="449.9717"/><line style="stroke:#333333;stroke-width:1;" x1="1564.561" x2="1983.5269" y1="449.9717" y2="449.9717"/><line style="stroke:#333333;stroke-width:1;" x1="1983.5269" x2="1983.5269" y1="449.9717" y2="473.2529"/><polygon fill="#333333" points="1979.5269,463.2529,1983.5269,473.2529,1987.5269,463.2529,1983.5269,467.2529" style="stroke:#333333;stroke-width:1;"/><line style="stroke:#333333;stroke-width:1;" x1="1983.5269" x2="1983.5269" y1="623.4717" y2="635.6729"/><line style="stroke:#333333;stroke-width:1;" x1="1983.5269" x2="2355.9917" y1="635.6729" y2="635.6729"/><line style="stroke:#333333;stroke-width:1;" x1="2355.9917" x2="2355.9917" y1="635.6729" y2="647.874"/><polygon fill="#333333" points="2351.9917,637.874,2355.9917,647.874,2359.9917,637.874,2355.9917,641.874" style="stroke:#333333;stroke-width:1;"/><line style="stroke:#333333;stroke-width:1;" x1="2355.9917" x2="2355.9917" y1="1227.9136" y2="1249.2554"/><line style="stroke:#333333;stroke-width:1;" x1="2355.9917" x2="1983.5269" y1="1249.2554" y2="1249.2554"/><line style="stroke:#333333;stroke-width:1;" x1="1983.5269" x2="1983.5269" y1="1249.2554" y2="1266.1948"/><polygon fill="#333333" points="1979.5269,1256.1948,1983.5269,1266.1948,1987.5269,1256.1948,1983.5269,1260.1948" style="stroke:#333333;stroke-width:1;"/><line style="stroke:#333333;stroke-width:1;" x1="1983.5269" x2="1983.5269" y1="1290.1948" y2="1295.1948"/><line style="stroke:#333333;stroke-width:1;" x1="1983.5269" x2="2355.9917" y1="1295.1948" y2="1295.1948"/><line style="stroke:#333333;stroke-width:1;" x1="2355.9917" x2="2355.9917" y1="1295.1948" y2="1310.1948"/><polygon fill="#333333" points="2351.9917,1300.1948,2355.9917,1310.1948,2359.9917,1300.1948,2355.9917,1304.1948" style="stroke:#333333;stroke-width:1;"/><text fill="#000000" font-family="sans-serif" font-size="18" lengthAdjust="spacing" textLength="139.9658" x="140.5938" y="66.75">NektarGateway</text><text fill="#000000" font-family="sans-serif" font-size="18" lengthAdjust="spacing" textLength="149.6953" x="524.0447" y="66.75">SessionCompiler</text><text fill="#000000" font-family="sans-serif" font-size="18" lengthAdjust="spacing" textLength="121.2539" x="919.7407" y="66.75">XMLRenderer</text><text fill="#000000" font-family="sans-serif" font-size="18" lengthAdjust="spacing" textLength="136.4414" x="1263.6616" y="66.75">SolverExecutor</text><text fill="#000000" font-family="sans-serif" font-size="18" lengthAdjust="spacing" textLength="212.3701" x="1574.8223" y="66.75">PostprocessComponent</text><text fill="#000000" font-family="sans-serif" font-size="18" lengthAdjust="spacing" textLength="141.7236" x="1987.2837" y="66.75">NektarValidator</text><text fill="#000000" font-family="sans-serif" font-size="18" lengthAdjust="spacing" textLength="275.4668" x="2364.1453" y="66.75">ConvergenceStudyComponent</text><?plantuml-src ZLPTRnD757tVNt4bNkpW9A9zCrLH2Wcg1075Kji7fDNOExP7sTrPPcQTE7KbKoW1AGbfCLy25H2aeLL9eAM1XXB-GNy4ygwTVz4xisl7ILorGKhiEJDtpZttt3l8MUO7H10FYgGqMn4yz9sJtEK2ZanDwd-MxE-O48BFfU37vcSGB2bMOwf-YX6F-yuKzrM1BL0uzf5bAQPS2jDqLX41fxX7c0-Jyuhwad4VFZHR42tVYdzz75zVxpvUshsvqtwp4hUsubltEuzQdP-tuZykMLRZo1bMgQhFt90sqbYdYQ9pf0uDI-8tPUNZbJKybwBd1I-wr2i4j7JSyhcY87G02q1ojqQ5NIOUS-jvc3Wr0-FmkL-QBY3eC2yXbeCQ4OnW39d3zQAMXeWwb30zfd23jAZlW8xSPtTQKEete42bZd2IUm5pgK22-MB8NCUM2M07Bl4psGEqFbpz8QMUdZ-Fk_Re5fcFr-U0NWo9ljvMzO1gPdG-82bZZyfgxZyOade3lZfxPWOXAX9omdpkivlttA7aKdmCSOXlBxRVRY4GtTZit7-5odTtRaRVhQKP73qAySjlk-jFedlFzf7uiag9GeLCJfFpj1GgRZXGyvaEbwRxudAdzMmlTdjxgVl-VdHD4uYNRtLNNeDK3W_LEFwXGeoxlAAX6wlHZTk02tY7puKdjKHAi9BSf_TCw4y8nSgaf0uhTf8BuZRWF9Sg4Bo46kYwSf_wocWNOZdti4FKfnXriQLyJ5V1A8LCTtCpUhtHtRpI_kj5LfDyjTDfFKpqXCnOJONZOmvH1Z9DqAESffCofpwkLQdpVr8epDO7--OBuZAy8T6zbdoXDYPoY7nYFOZ-_2rQREuscz7YTloa6JzSGwoi4yFVs1yGFRyRFNWMDzUr7OtQDGc2bj5WVeb2lDdgxbpU9tdA0UqqGmCk1add1wT1jB4KNrizRbci39b4negEML2XKp-H1LMbFcJYkvjP2-CtZfmJfIfp6d1mws3D0FAxbvQZbQj0vfaSGmL2AY_ucUdGEyiTJ4VEKHgW5W3xrC3XWEkZ9HxKSLnAz6eoOWpaXGfLX7wC07N3iX5NIzBF3L2L03l07CbhpMt9_8fBRRCtOouzT2rWIvjHabG-wHJzEKK7_6Tsz6gQmj7JbzrNQ_6ThTrxovtjzVQRRIWJZEOa13KbNG6zTP0f4en_l1AztGRY4xU-W0dH6dEqfF_24fy2L2MTLzY2cUm-0BsY4C0s3K8b-w0CFGydxG9QiESOsvYelqFdb4oCCxmoeSb89WUmAHFud8ax19xKmGhcblgXB9Dwm5nLovlflhyRFxXkV069BqvSyANYWOrpiSo4L7P0f3oXcOr-6gt-T5p7o7St7dSsxk0CGgUDkhH6tLvRBot6ZnQ7ECaaY1FtOgZpJSmby1gXUo8XpukIYXfrR2vmffcbZ1QLscoSsb-peyU-oUB3fPUcaw_ZqpRBPWyOBf-C6lqgz3e2HEZI8QH6HaWHguVc6Xd9fsC7Fbn_2jYm5QfinV4r8ps-8oE2kaYtHcrDNHynxCs9VL2ILNe81xoY9DJR6t-t3DA0Jo1TFd17_E2NwFjtxJVFJI7Bn7Nr_rDmkTb-ztkFuR0soslnhwqUcWF9j1cIkmc2xuEWs6kUVX0TspWWPoKDcCHnSWVgai23fmGb4X_Z8MNE7QZn7c7gIdGV-Ych1o4hMvOsdVKF?></g></svg>